<svg width="384" height="377" viewBox="0 0 384 377" fill="none" xmlns="http://www.w3.org/2000/svg">
<g clipPath="url(#clip0_452_304)">
<path d="M82.9722 182.775C82.593 182.775 82.2215 182.668 81.9005 182.466C81.5795 182.264 81.322 181.976 81.1576 181.634L76.8215 172.607C76.6868 172.327 76.6189 172.02 76.623 171.709C76.6271 171.398 76.7032 171.093 76.8453 170.817C76.9874 170.54 77.1916 170.301 77.4419 170.117C77.6922 169.932 77.9817 169.809 78.2878 169.756C79.1253 169.593 79.9206 169.261 80.6247 168.779C81.3288 168.298 81.9268 167.677 82.3817 166.956C82.8163 166.323 83.117 165.609 83.2651 164.856C83.4133 164.103 83.4058 163.328 83.2432 162.578C83.0326 161.836 82.6747 161.143 82.1909 160.541C81.7072 159.94 81.1073 159.442 80.4271 159.077C79.6943 158.644 78.8828 158.361 78.0397 158.245C77.1967 158.128 76.3389 158.181 75.5162 158.399C73.9158 158.983 72.5607 160.093 71.672 161.546C70.7832 163 70.4132 164.712 70.6224 166.403C70.6591 166.664 70.6439 166.93 70.5778 167.186C70.5116 167.441 70.3957 167.682 70.2368 167.892C70.0778 168.103 69.8789 168.281 69.6514 168.415C69.4238 168.549 69.1721 168.637 68.9106 168.673C68.6491 168.71 68.3829 168.695 68.1273 168.629C67.8716 168.563 67.6315 168.447 67.4207 168.288C67.2098 168.129 67.0323 167.93 66.8983 167.702C66.7644 167.475 66.6765 167.223 66.6398 166.961C66.304 164.319 66.8891 161.641 68.2965 159.38C69.7039 157.118 71.8477 155.41 74.3668 154.544C75.7102 154.167 77.116 154.065 78.4999 154.244C79.8838 154.422 81.2174 154.878 82.421 155.584C83.5734 156.219 84.5858 157.08 85.3979 158.116C86.21 159.151 86.805 160.339 87.1473 161.61C87.4424 162.896 87.4707 164.228 87.2307 165.525C86.9906 166.822 86.4872 168.056 85.7516 169.151C84.6928 170.788 83.2003 172.098 81.4404 172.936L84.7841 179.893C84.9309 180.2 84.9978 180.538 84.9783 180.878C84.9589 181.217 84.8538 181.546 84.6729 181.834C84.492 182.122 84.2411 182.359 83.9437 182.523C83.6463 182.688 83.3121 182.775 82.9722 182.775V182.775Z" fill="#E0E0E0"/>
<path d="M87.2914 185.371C87.4397 185.661 87.4989 185.988 87.4613 186.311C87.4238 186.634 87.2913 186.939 87.0805 187.187C86.8697 187.435 86.5902 187.615 86.2772 187.704C85.9643 187.793 85.6319 187.787 85.3223 187.687C85.0126 187.587 84.7395 187.397 84.5375 187.142C84.3355 186.887 84.2137 186.578 84.1875 186.254C84.1613 185.929 84.2318 185.605 84.3901 185.32C84.5485 185.036 84.7876 184.805 85.0772 184.657C85.2695 184.558 85.4792 184.499 85.6946 184.481C85.9099 184.464 86.1266 184.489 86.3322 184.555C86.5378 184.622 86.7283 184.728 86.8929 184.868C87.0575 185.008 87.1929 185.179 87.2914 185.371Z" fill="#E0E0E0"/>
<path d="M28.0118 152.533C27.747 152.533 27.4876 152.458 27.2634 152.317C27.0393 152.176 26.8594 151.974 26.7446 151.736L23.7165 145.432C23.6224 145.236 23.5749 145.021 23.5778 144.804C23.5807 144.588 23.6338 144.374 23.733 144.181C23.8323 143.988 23.9749 143.821 24.1497 143.692C24.3245 143.564 24.5268 143.478 24.7405 143.44C25.3254 143.327 25.8808 143.095 26.3725 142.759C26.8643 142.422 27.2819 141.989 27.5995 141.485C27.903 141.043 28.113 140.544 28.2165 140.018C28.3199 139.493 28.3147 138.951 28.2011 138.428C28.054 137.909 27.8041 137.425 27.4663 137.005C27.1284 136.585 26.7095 136.237 26.2344 135.982C25.7227 135.68 25.1559 135.482 24.567 135.401C23.9782 135.32 23.379 135.356 22.8044 135.509C21.6868 135.917 20.7405 136.692 20.1198 137.707C19.4992 138.722 19.2408 139.918 19.3868 141.098C19.4141 141.282 19.4047 141.469 19.3593 141.648C19.3139 141.828 19.2334 141.997 19.1224 142.145C19.0114 142.294 18.8721 142.419 18.7125 142.513C18.553 142.608 18.3763 142.669 18.1928 142.695C18.0092 142.721 17.8223 142.71 17.643 142.663C17.4636 142.616 17.2954 142.535 17.1478 142.422C17.0002 142.31 16.8764 142.17 16.7833 142.01C16.6902 141.849 16.6298 141.672 16.6056 141.488C16.3711 139.643 16.7797 137.773 17.7626 136.194C18.7454 134.614 20.2425 133.422 22.0017 132.817C22.94 132.553 23.9217 132.482 24.8881 132.607C25.8546 132.732 26.7859 133.05 27.6264 133.543C28.4312 133.987 29.1383 134.588 29.7054 135.311C30.2725 136.034 30.688 136.864 30.927 137.751C31.1331 138.649 31.1529 139.58 30.9853 140.485C30.8177 141.391 30.4661 142.253 29.9524 143.018C29.213 144.161 28.1707 145.076 26.9416 145.661L29.2767 150.519C29.3793 150.733 29.4259 150.97 29.4123 151.207C29.3987 151.444 29.3253 151.674 29.199 151.875C29.0726 152.076 28.8974 152.241 28.6898 152.356C28.4821 152.471 28.2487 152.532 28.0113 152.532L28.0118 152.533Z" fill="#F5F5F5"/>
<path d="M31.0284 154.346C31.132 154.548 31.1733 154.776 31.1471 155.002C31.1209 155.228 31.0283 155.44 30.8811 155.614C30.7339 155.787 30.5387 155.912 30.3201 155.974C30.1015 156.037 29.8695 156.033 29.6532 155.963C29.4369 155.893 29.2462 155.761 29.1051 155.583C28.9641 155.404 28.879 155.188 28.8607 154.962C28.8424 154.735 28.8916 154.509 29.0022 154.31C29.1128 154.112 29.2798 153.95 29.482 153.847C29.7532 153.708 30.0685 153.682 30.3585 153.776C30.6485 153.869 30.8894 154.074 31.0284 154.346Z" fill="#F5F5F5"/>
<path d="M277.534 155.933C277.647 156.172 277.69 156.438 277.659 156.701C277.627 156.964 277.522 157.213 277.356 157.419L272.953 162.853C272.816 163.021 272.643 163.156 272.445 163.246C272.248 163.336 272.033 163.38 271.816 163.373C271.599 163.365 271.387 163.308 271.196 163.205C271.005 163.102 270.84 162.956 270.715 162.779C270.362 162.299 269.915 161.896 269.401 161.595C268.886 161.295 268.316 161.103 267.724 161.031C267.195 160.946 266.655 160.97 266.135 161.101C265.616 161.232 265.129 161.469 264.704 161.795C264.298 162.15 263.968 162.583 263.733 163.068C263.498 163.553 263.362 164.08 263.335 164.619C263.281 165.211 263.345 165.807 263.523 166.374C263.701 166.941 263.991 167.467 264.374 167.921C265.221 168.757 266.326 169.281 267.51 169.408C268.693 169.534 269.884 169.256 270.889 168.619C271.043 168.518 271.215 168.448 271.396 168.413C271.577 168.379 271.764 168.38 271.944 168.418C272.125 168.455 272.296 168.527 272.449 168.631C272.601 168.735 272.732 168.867 272.833 169.021C272.935 169.176 273.005 169.348 273.039 169.529C273.074 169.71 273.072 169.897 273.035 170.077C272.998 170.258 272.925 170.429 272.822 170.582C272.718 170.734 272.585 170.865 272.431 170.966C270.863 171.968 268.998 172.398 267.15 172.185C265.302 171.973 263.584 171.13 262.285 169.798C261.645 169.063 261.161 168.206 260.86 167.279C260.559 166.352 260.449 165.374 260.535 164.403C260.591 163.486 260.832 162.59 261.243 161.768C261.654 160.946 262.227 160.216 262.926 159.62C263.65 159.05 264.482 158.634 265.373 158.398C266.263 158.162 267.192 158.111 268.103 158.248C269.453 158.427 270.726 158.978 271.78 159.839L275.173 155.65C275.323 155.465 275.517 155.322 275.737 155.233C275.957 155.144 276.196 155.112 276.431 155.14C276.667 155.168 276.892 155.256 277.085 155.394C277.277 155.533 277.432 155.718 277.534 155.933H277.534Z" fill="#F5F5F5"/>
<path d="M277.883 152.431C278.021 152.25 278.21 152.115 278.425 152.042C278.64 151.97 278.872 151.962 279.092 152.021C279.311 152.08 279.508 152.203 279.658 152.374C279.808 152.545 279.903 152.756 279.933 152.982C279.962 153.207 279.924 153.436 279.823 153.64C279.723 153.843 279.564 154.013 279.367 154.126C279.17 154.24 278.944 154.292 278.717 154.277C278.491 154.262 278.273 154.18 278.093 154.042C277.852 153.856 277.694 153.582 277.654 153.28C277.615 152.978 277.697 152.672 277.883 152.431Z" fill="#F5F5F5"/>
<path d="M262.872 25.4869C262.986 25.7263 263.029 25.9928 262.997 26.2557C262.966 26.5187 262.861 26.7674 262.694 26.9732L258.291 32.407C258.155 32.5757 257.981 32.7105 257.784 32.8007C257.586 32.8909 257.371 32.9342 257.154 32.927C256.937 32.9199 256.725 32.8626 256.534 32.7595C256.343 32.6565 256.178 32.5106 256.053 32.3333C255.701 31.8532 255.253 31.4504 254.739 31.1498C254.225 30.8492 253.654 30.6573 253.063 30.5857C252.534 30.5003 251.993 30.524 251.474 30.6554C250.954 30.7868 250.467 31.023 250.043 31.3496C249.637 31.7044 249.306 32.1372 249.071 32.6223C248.836 33.1074 248.701 33.6348 248.674 34.1732C248.619 34.7651 248.683 35.3619 248.861 35.9288C249.04 36.4958 249.329 37.0216 249.713 37.4757C250.56 38.3113 251.665 38.8353 252.848 38.9621C254.031 39.0889 255.222 38.811 256.227 38.1738C256.381 38.071 256.554 37.9997 256.736 37.964C256.917 37.9283 257.104 37.9289 257.286 37.9658C257.467 38.0027 257.64 38.0751 257.793 38.1789C257.947 38.2827 258.078 38.4158 258.18 38.5706C258.281 38.7254 258.352 38.8988 258.386 39.0808C258.421 39.2628 258.419 39.4498 258.381 39.631C258.342 39.8123 258.269 39.9842 258.164 40.1369C258.059 40.2896 257.925 40.42 257.77 40.5207C256.202 41.5221 254.337 41.9527 252.489 41.74C250.641 41.5272 248.922 40.6842 247.623 39.3527C246.984 38.6174 246.499 37.7606 246.198 36.8337C245.898 35.9067 245.787 34.9286 245.873 33.9579C245.93 33.0408 246.171 32.1445 246.582 31.3226C246.993 30.5007 247.565 29.7701 248.265 29.1744C248.988 28.6041 249.821 28.1882 250.711 27.9522C251.602 27.7163 252.531 27.6654 253.442 27.8026C254.791 27.982 256.064 28.5327 257.119 29.3933L260.512 25.2042C260.661 25.02 260.855 24.8766 261.075 24.7876C261.295 24.6985 261.534 24.6666 261.77 24.6948C262.005 24.723 262.23 24.8105 262.423 24.949C262.616 25.0875 262.77 25.2725 262.872 25.4869H262.872Z" fill="#F5F5F5"/>
<path d="M263.221 21.985C263.359 21.8048 263.548 21.6698 263.763 21.5969C263.979 21.5241 264.211 21.5167 264.43 21.5757C264.65 21.6346 264.847 21.7574 264.996 21.9284C265.146 22.0993 265.242 22.3108 265.271 22.5362C265.301 22.7615 265.263 22.9905 265.162 23.1942C265.061 23.3979 264.902 23.5672 264.705 23.6806C264.509 23.7941 264.282 23.8466 264.056 23.8315C263.829 23.8165 263.612 23.7345 263.432 23.596C263.312 23.5041 263.212 23.3895 263.136 23.2587C263.061 23.128 263.012 22.9837 262.993 22.8342C262.973 22.6846 262.983 22.5326 263.022 22.3869C263.061 22.2412 263.129 22.1046 263.221 21.985Z" fill="#F5F5F5"/>
<path d="M151.854 45.5388C152.198 45.5388 152.535 45.636 152.826 45.8192C153.118 46.0024 153.351 46.2641 153.5 46.5742L157.435 54.7662C157.558 55.0203 157.619 55.2993 157.616 55.5812C157.612 55.8632 157.543 56.1404 157.414 56.3912C157.285 56.6419 157.1 56.8594 156.872 57.0264C156.645 57.1935 156.382 57.3056 156.105 57.3539C155.345 57.5013 154.623 57.8029 153.984 58.24C153.345 58.6771 152.802 59.2404 152.389 59.8953C151.995 60.4691 151.722 61.1175 151.588 61.8007C151.453 62.4839 151.46 63.1874 151.608 63.8678C151.799 64.5418 152.124 65.1704 152.563 65.7163C153.002 66.2622 153.546 66.7142 154.163 67.0454C154.828 67.4383 155.565 67.695 156.33 67.8006C157.095 67.9063 157.873 67.8588 158.62 67.6608C160.072 67.1305 161.302 66.1235 162.109 64.8044C162.915 63.4853 163.251 61.9318 163.061 60.3973C163.026 60.1592 163.039 59.9166 163.098 59.6834C163.157 59.4502 163.262 59.231 163.406 59.0384C163.55 58.8458 163.731 58.6837 163.938 58.5612C164.145 58.4388 164.375 58.3586 164.613 58.3252C164.851 58.2917 165.094 58.3057 165.327 58.3664C165.559 58.427 165.778 58.5331 165.97 58.6786C166.161 58.824 166.322 59.0059 166.443 59.2138C166.565 59.4217 166.643 59.6515 166.675 59.89C166.98 62.2882 166.449 64.718 165.172 66.7705C163.895 68.823 161.949 70.3727 159.663 71.1586C158.444 71.5009 157.168 71.5937 155.912 71.4315C154.656 71.2693 153.446 70.8554 152.354 70.2146C151.308 69.6383 150.389 68.857 149.652 67.9174C148.915 66.9779 148.375 65.8994 148.065 64.7464C147.797 63.5797 147.771 62.3705 147.989 61.1934C148.207 60.0164 148.664 58.8964 149.331 57.9028C150.292 56.4176 151.647 55.2285 153.244 54.468L150.209 48.1544C150.076 47.8762 150.015 47.5688 150.033 47.2608C150.051 46.9528 150.146 46.6544 150.31 46.3932C150.474 46.1321 150.702 45.9168 150.972 45.7673C151.242 45.6179 151.545 45.5393 151.854 45.5388Z" fill="#E0E0E0"/>
<path d="M147.934 43.1829C147.799 42.9201 147.745 42.6233 147.779 42.33C147.814 42.0367 147.934 41.7601 148.125 41.5352C148.316 41.3102 148.57 41.1471 148.854 41.0663C149.138 40.9855 149.44 40.9908 149.721 41.0814C150.002 41.172 150.249 41.3439 150.433 41.5754C150.616 41.8069 150.727 42.0875 150.75 42.3818C150.774 42.6761 150.71 42.9709 150.567 43.2288C150.423 43.4868 150.206 43.6963 149.943 43.8309C149.591 44.0114 149.181 44.0446 148.804 43.923C148.427 43.8015 148.114 43.5353 147.934 43.1829Z" fill="#E0E0E0"/>
<path d="M287.513 207.339C287.857 207.339 288.195 207.436 288.486 207.619C288.777 207.802 289.011 208.064 289.16 208.374L293.095 216.566C293.217 216.82 293.279 217.099 293.275 217.381C293.272 217.663 293.202 217.941 293.074 218.191C292.945 218.442 292.759 218.659 292.532 218.827C292.305 218.994 292.042 219.106 291.764 219.154C291.004 219.301 290.283 219.603 289.644 220.04C289.005 220.477 288.462 221.04 288.049 221.695C287.655 222.269 287.382 222.918 287.247 223.601C287.113 224.284 287.12 224.987 287.267 225.668C287.458 226.342 287.783 226.97 288.222 227.516C288.661 228.062 289.206 228.514 289.823 228.845C290.488 229.238 291.224 229.495 291.989 229.601C292.755 229.706 293.533 229.659 294.28 229.461C295.732 228.931 296.962 227.924 297.768 226.605C298.575 225.285 298.911 223.732 298.721 222.197C298.686 221.959 298.698 221.717 298.758 221.484C298.817 221.251 298.922 221.032 299.066 220.839C299.21 220.647 299.391 220.485 299.598 220.362C299.805 220.24 300.035 220.16 300.273 220.126C300.511 220.093 300.753 220.107 300.986 220.168C301.219 220.228 301.437 220.334 301.629 220.479C301.821 220.625 301.982 220.806 302.103 221.014C302.224 221.222 302.303 221.452 302.335 221.69C302.64 224.088 302.109 226.518 300.832 228.571C299.554 230.623 297.609 232.173 295.323 232.959C294.103 233.301 292.828 233.394 291.572 233.232C290.316 233.069 289.106 232.656 288.013 232.015C286.968 231.438 286.049 230.657 285.312 229.718C284.575 228.778 284.035 227.699 283.724 226.547C283.457 225.38 283.431 224.171 283.649 222.994C283.867 221.817 284.323 220.697 284.991 219.703C285.952 218.218 287.306 217.029 288.903 216.268L285.869 209.955C285.736 209.676 285.675 209.369 285.693 209.061C285.71 208.753 285.806 208.455 285.97 208.193C286.134 207.932 286.362 207.717 286.632 207.568C286.901 207.418 287.205 207.339 287.513 207.339V207.339Z" fill="#E0E0E0"/>
<path d="M283.594 204.983C283.459 204.72 283.406 204.423 283.44 204.13C283.474 203.836 283.594 203.56 283.785 203.335C283.977 203.11 284.23 202.947 284.514 202.866C284.798 202.785 285.1 202.79 285.381 202.881C285.662 202.972 285.91 203.144 286.093 203.375C286.276 203.607 286.387 203.887 286.411 204.182C286.434 204.476 286.37 204.771 286.227 205.028C286.083 205.286 285.866 205.496 285.603 205.631C285.251 205.811 284.841 205.844 284.464 205.723C284.088 205.601 283.774 205.335 283.594 204.983Z" fill="#E0E0E0"/>
<path d="M335.616 87.2788L332.637 87.4767L326.739 96.968L327.134 102.914C327.134 102.914 322.549 103.503 322.573 95.6813C322.597 87.8596 322.143 89.8813 322.143 89.8813C322.143 89.8813 312.364 90.4932 311.495 89.6979C310.863 89.1201 309.951 79.427 309.499 74.167C309.35 72.9003 309.63 71.6203 310.293 70.5308C310.956 69.4414 311.964 68.605 313.158 68.1549C313.495 68.0412 313.845 67.9701 314.2 67.9433C316.639 67.7813 329.229 68.9359 329.229 68.9359L334.374 68.5939L335.616 87.2788Z" fill="#455B64"/>
<path d="M344.252 88.345L341.066 68.093L335.964 68.432L337.291 88.395L344.252 88.345Z" fill="#455B64"/>
<path d="M265.849 105.474C265.996 105.485 266.141 105.52 266.277 105.577C266.449 105.625 266.616 105.69 266.776 105.77C267.002 105.864 267.219 105.978 267.425 106.109C268.556 106.818 269.477 107.816 270.093 109.001C270.709 110.185 270.998 111.512 270.929 112.845C270.839 114.111 270.38 115.323 269.609 116.331C268.767 117.446 267.633 118.308 266.333 118.821C264.944 119.426 263.391 119.545 261.926 119.159C260.461 118.772 259.169 117.901 258.26 116.689C257.383 115.6 256.822 114.291 256.64 112.904C256.468 111.647 256.667 110.367 257.214 109.221C257.812 108.028 258.719 107.017 259.84 106.291C260.96 105.566 262.254 105.153 263.588 105.095C263.832 105.083 264.077 105.091 264.319 105.121C264.498 105.13 264.675 105.156 264.848 105.2C264.995 105.217 265.138 105.258 265.272 105.321C265.263 105.378 264.669 105.221 263.598 105.297C262.088 105.428 260.655 106.02 259.492 106.993C258.693 107.648 258.048 108.472 257.604 109.405C257.113 110.479 256.943 111.673 257.116 112.841C257.247 114.199 257.791 115.484 258.675 116.523C259.559 117.563 260.739 118.306 262.058 118.655C263.377 119.003 264.771 118.939 266.053 118.472C267.334 118.004 268.442 117.156 269.227 116.04C269.954 115.11 270.396 113.988 270.499 112.812C270.574 111.781 270.421 110.746 270.049 109.782C269.519 108.362 268.565 107.139 267.316 106.279C266.423 105.684 265.828 105.528 265.849 105.474Z" fill="#263238"/>
<path d="M245.034 123.285C245.397 123.322 245.745 123.448 246.046 123.653C246.774 124.097 247.368 124.729 247.766 125.482C248.165 126.235 248.354 127.081 248.312 127.932C248.257 128.745 247.965 129.525 247.472 130.174C246.937 130.947 246.176 131.537 245.293 131.863C244.41 132.188 243.449 132.234 242.539 131.994C241.63 131.754 240.816 131.239 240.21 130.52C239.603 129.801 239.233 128.912 239.149 127.975C239.04 127.167 239.171 126.345 239.526 125.61C239.91 124.85 240.492 124.207 241.21 123.75C241.929 123.292 242.757 123.036 243.609 123.009C243.972 122.98 244.337 123.042 244.671 123.189C244.662 123.238 244.286 123.152 243.619 123.212C242.681 123.307 241.794 123.685 241.075 124.295C240.54 124.72 240.126 125.277 239.871 125.911C239.617 126.545 239.532 127.234 239.624 127.911C239.707 128.748 240.043 129.539 240.588 130.178C241.133 130.818 241.86 131.276 242.672 131.49C243.485 131.705 244.343 131.666 245.133 131.379C245.922 131.092 246.605 130.57 247.09 129.884C247.505 129.341 247.771 128.699 247.864 128.022C247.956 127.345 247.87 126.656 247.615 126.022C247.291 125.137 246.706 124.371 245.938 123.824C245.387 123.443 245.017 123.332 245.034 123.285Z" fill="#263238"/>
<path d="M275.341 74.9226C275.341 74.9226 275.372 74.6395 275.458 74.0896C275.55 73.5256 275.682 72.7122 275.855 71.6496C275.944 71.112 276.044 70.5127 276.154 69.8515C276.295 69.1964 276.514 68.4944 276.716 67.7259L277.396 65.2501C277.511 64.7913 277.662 64.3423 277.847 63.9073L278.39 62.5025C280.148 57.7899 282.618 53.3745 285.713 49.4097C289.778 44.1174 294.828 39.6616 300.585 36.2879L303.019 34.8866C303.866 34.4645 304.749 34.0904 305.628 33.6832C306.519 33.3071 307.38 32.8237 308.324 32.5232L311.163 31.5532C311.642 31.3932 312.12 31.2191 312.607 31.0681L314.104 30.7159L317.142 30.0017C318.171 29.7927 319.231 29.7047 320.288 29.5485C321.353 29.3715 322.427 29.2595 323.505 29.2132C325.714 29.0697 327.931 29.0779 330.139 29.2377C331.259 29.3324 332.397 29.3587 333.528 29.5119L336.932 30.0987C337.501 30.2074 338.082 30.2737 338.648 30.4187L340.342 30.8907C341.471 31.2196 342.627 31.4958 343.757 31.8747C346.037 32.6789 348.262 33.6325 350.417 34.7294C350.962 35.0075 351.509 35.2865 352.058 35.5663C352.331 35.7088 352.611 35.8405 352.879 35.9925L353.661 36.4925L356.811 38.5097C357.833 39.2342 358.798 40.0506 359.803 40.8237C360.292 41.2267 360.823 41.5847 361.281 42.028L362.668 43.3531C364.549 45.135 366.309 47.0396 367.938 49.0545C368.695 50.1217 369.455 51.194 370.22 52.2713L370.793 53.0804L371.293 53.9393L372.287 55.6693L373.284 57.4071L374.121 59.2371L374.954 61.0783L375.372 62.0018C375.492 62.3174 375.593 62.6412 375.705 62.9611L377.02 66.8268C377.332 68.157 377.646 69.4923 377.96 70.8327C380.235 81.868 378.839 93.3443 373.984 103.512L372.11 107.177L369.905 110.615L369.352 111.467L368.724 112.263L367.473 113.851L366.222 115.427L364.836 116.875L363.456 118.316L362.765 119.031L362.014 119.679L359.026 122.255C356.961 123.82 354.795 125.247 352.541 126.526L350.876 127.48C350.325 127.8 349.724 128.02 349.152 128.294C347.991 128.804 346.858 129.364 345.691 129.823L342.148 131.025L341.269 131.323C340.972 131.407 340.669 131.467 340.369 131.54L338.575 131.959C336.219 132.506 333.83 132.898 331.423 133.132C330.235 133.228 329.047 133.219 327.872 133.267L326.114 133.319C325.53 133.323 324.95 133.249 324.371 133.217L320.926 132.97C319.791 132.847 318.68 132.6 317.57 132.422C315.387 132.047 313.234 131.523 311.123 130.854C310.088 130.55 309.072 130.183 308.081 129.756C307.092 129.35 306.083 129.011 305.135 128.56L302.357 127.138L300.988 126.436L299.703 125.619L297.18 123.996C296.336 123.478 295.616 122.802 294.841 122.223C294.086 121.617 293.318 121.042 292.597 120.428L290.571 118.484C285.792 113.827 281.959 108.289 279.284 102.176C277.232 97.5843 275.894 92.7055 275.319 87.7091C275.254 87.1969 275.19 86.699 275.129 86.2152C275.053 85.7485 275.015 85.2765 275.014 84.8036C274.991 83.8889 274.969 83.0335 274.948 82.2375C274.937 81.443 274.892 80.709 274.913 80.0394C274.964 79.3717 275.012 78.766 275.054 78.2223C275.141 77.1497 275.208 76.3285 275.254 75.7587C275.302 75.2042 275.34 74.9221 275.34 74.9221C275.34 74.9221 275.337 75.2086 275.307 75.7643C275.272 76.3339 275.223 77.1553 275.158 78.2284C275.124 78.7708 275.085 79.3755 275.042 80.0424C275.03 80.7106 275.083 81.4424 275.102 82.2345C275.13 83.0273 275.16 83.8796 275.192 84.7914C275.197 85.2626 275.239 85.7326 275.318 86.197C275.383 86.6783 275.45 87.1739 275.519 87.6838C276.128 92.6516 277.487 97.4982 279.55 102.058C282.236 108.12 286.065 113.607 290.827 118.22L292.845 120.145C293.562 120.752 294.326 121.32 295.077 121.919C295.848 122.492 296.564 123.161 297.404 123.673L299.912 125.276L301.189 126.084L302.549 126.776L305.309 128.181C306.25 128.626 307.251 128.959 308.233 129.36C309.217 129.781 310.225 130.143 311.252 130.442C313.347 131.101 315.484 131.617 317.648 131.984C318.749 132.157 319.851 132.401 320.976 132.521L324.393 132.76C324.966 132.79 325.541 132.864 326.12 132.858L327.863 132.804C329.027 132.754 330.205 132.761 331.382 132.664C333.766 132.428 336.133 132.037 338.466 131.491L340.243 131.074C340.54 131.002 340.84 130.941 341.134 130.858L342.005 130.562L345.513 129.367C346.668 128.911 347.79 128.354 348.94 127.848C349.505 127.576 350.101 127.358 350.647 127.04L352.294 126.093C354.525 124.824 356.67 123.409 358.714 121.857L361.671 119.304L362.414 118.662L363.098 117.953L364.464 116.525L365.835 115.091L367.073 113.529L368.311 111.956L368.932 111.168L369.479 110.324L371.661 106.919C372.277 105.714 372.894 104.504 373.515 103.29C378.318 93.2223 379.7 81.861 377.451 70.9352L376.522 66.9689C376.087 65.6881 375.654 64.4121 375.222 63.1411C375.111 62.8244 375.012 62.5036 374.893 62.1911L374.479 61.2766L373.655 59.4531L372.828 57.6406L371.841 55.9194L370.858 54.2056L370.364 53.3545L369.797 52.553C369.041 51.4856 368.288 50.423 367.54 49.3653C365.928 47.3686 364.186 45.4807 362.325 43.714L360.953 42.3997C360.499 41.9597 359.974 41.6054 359.49 41.2056C358.495 40.4391 357.54 39.6288 356.529 38.9098L353.411 36.9088L352.637 36.4118C352.372 36.2609 352.095 36.1302 351.824 35.9887L350.199 35.1577C348.066 34.0681 345.863 33.1199 343.605 32.3192C342.486 31.9421 341.341 31.6671 340.222 31.3392L338.544 30.8682C337.984 30.7237 337.408 30.6574 336.844 30.5487L333.47 29.9607C332.349 29.8066 331.221 29.7792 330.11 29.6829C327.921 29.52 325.723 29.5073 323.532 29.6449C322.463 29.6883 321.397 29.7971 320.341 29.9705C319.292 30.1232 318.24 30.2074 317.22 30.4124L314.204 31.1138L312.717 31.4591C312.234 31.6077 311.76 31.7791 311.284 31.937L308.464 32.8913C307.526 33.1861 306.671 33.6642 305.785 34.0348C304.912 34.4365 304.033 34.8048 303.191 35.2214L300.771 36.6054C295.04 39.94 290.005 44.3478 285.943 49.5877C282.845 53.5192 280.362 57.8983 278.579 62.5751C278.389 63.0537 278.205 63.5188 278.026 63.9705C277.838 64.4024 277.684 64.8486 277.566 65.3047C277.317 66.182 277.083 67.0023 276.866 67.7657C276.656 68.5298 276.429 69.2279 276.281 69.8795C276.162 70.537 276.055 71.1334 275.958 71.6687C275.763 72.7261 275.614 73.5355 275.511 74.0969C275.407 74.6438 275.341 74.9226 275.341 74.9226Z" fill="#263238"/>
<path d="M118.289 92.0352C118.303 92.0913 117.694 92.1752 116.735 92.6578C115.392 93.3601 114.297 94.4585 113.599 95.804C113.114 96.7167 112.836 97.7254 112.786 98.7579C112.746 99.938 113.049 101.104 113.659 102.116C114.303 103.318 115.3 104.295 116.515 104.914C117.731 105.533 119.107 105.765 120.459 105.578C121.81 105.392 123.072 104.796 124.075 103.871C125.077 102.946 125.773 101.736 126.067 100.404C126.38 99.2653 126.356 98.0604 125.998 96.935C125.67 95.9545 125.13 95.0587 124.415 94.3115C123.379 93.2054 122.028 92.4446 120.545 92.1322C119.491 91.9269 118.882 92.0114 118.88 91.9537C119.021 91.9075 119.167 91.8839 119.315 91.8837C119.493 91.8615 119.672 91.8567 119.85 91.8696C120.095 91.8695 120.339 91.8904 120.58 91.9321C121.897 92.1508 123.131 92.7173 124.156 93.5729C125.181 94.4284 125.958 95.5421 126.408 96.7988C126.812 98.002 126.855 99.297 126.532 100.524C126.185 101.879 125.47 103.111 124.467 104.085C123.418 105.179 122.031 105.887 120.53 106.094C119.029 106.301 117.502 105.995 116.196 105.226C114.967 104.559 113.946 103.567 113.245 102.357C112.601 101.263 112.292 100.005 112.355 98.7373C112.448 97.4056 112.895 96.123 113.65 95.0219C114.405 93.9208 115.44 93.0412 116.648 92.4741C116.869 92.3687 117.098 92.2825 117.334 92.2165C117.502 92.1558 117.675 92.1118 117.852 92.0852C117.994 92.0456 118.142 92.0287 118.289 92.0352Z" fill="#263238"/>
<path d="M137.277 108.179C137.288 108.228 136.907 108.293 136.315 108.605C135.486 109.055 134.813 109.745 134.384 110.584C134.054 111.183 133.886 111.857 133.895 112.54C133.905 113.223 134.092 113.892 134.438 114.481C134.836 115.221 135.451 115.821 136.2 116.202C136.949 116.582 137.797 116.725 138.629 116.61C139.462 116.495 140.239 116.129 140.857 115.56C141.475 114.99 141.904 114.246 142.087 113.426C142.261 112.765 142.26 112.07 142.084 111.41C141.909 110.75 141.564 110.147 141.085 109.66C140.444 108.968 139.609 108.486 138.69 108.277C138.035 108.137 137.651 108.177 137.649 108.128C137.998 108.022 138.368 108.005 138.725 108.078C139.567 108.208 140.359 108.562 141.016 109.103C141.674 109.644 142.174 110.353 142.464 111.154C142.727 111.926 142.757 112.758 142.552 113.547C142.355 114.467 141.88 115.304 141.191 115.944C140.502 116.585 139.632 116.997 138.7 117.126C137.768 117.255 136.819 117.093 135.983 116.663C135.146 116.233 134.462 115.556 134.024 114.723C133.613 114.019 133.417 113.21 133.461 112.396C133.522 111.546 133.812 110.729 134.299 110.03C134.785 109.331 135.452 108.776 136.227 108.423C136.551 108.256 136.912 108.172 137.277 108.179Z" fill="#263238"/>
<path d="M63.4859 53.2888H60.2559L53.208 43.4667V37.0202C53.208 37.0202 48.2163 36.7132 48.8034 45.1544C49.3905 53.5956 48.7555 51.4464 48.7555 51.4464C48.7555 51.4464 38.1562 51.4873 37.2755 52.4081C36.6347 53.0772 36.3455 63.6057 36.2344 69.3159C36.165 70.6939 36.5585 72.0554 37.3524 73.1839C38.1462 74.3123 39.2947 75.1428 40.6151 75.543C40.9875 75.6415 41.3707 75.6932 41.7559 75.6966C44.3994 75.6966 57.9067 73.5473 57.9067 73.5473H63.4859V53.2888Z" fill="#E7515B"/>
<path d="M72.7309 51.519L70.7449 73.607H65.2139V51.963L72.7309 51.519Z" fill="#E7515B"/>
<path d="M112.56 56.3575C112.56 56.3575 112.527 56.0495 112.488 55.4485C112.451 54.8343 112.397 53.9456 112.328 52.7822C112.294 52.1956 112.257 51.541 112.216 50.8185C112.142 50.0991 111.99 49.3197 111.865 48.4716C111.732 47.6239 111.588 46.7122 111.435 45.7366C111.368 45.2312 111.261 44.7319 111.116 44.2433C110.983 43.7349 110.846 43.2112 110.706 42.6724C109.404 37.4155 107.311 32.3868 104.498 27.7584C100.821 21.5979 95.9906 16.2039 90.2714 11.8718L87.8525 10.0683C87.0025 9.51062 86.1076 8.99982 85.2225 8.45402L83.8805 7.64112C83.4375 7.35262 82.9742 7.09659 82.4941 6.87502L79.59 5.48061C79.1001 5.24901 78.6128 5.00262 78.113 4.77972L76.5613 4.21403L73.4136 3.06582C72.3443 2.71212 71.2253 2.48382 70.1183 2.18252L68.4428 1.75343C68.1615 1.68533 67.8829 1.60102 67.5978 1.54592L66.7333 1.41502C64.3977 0.980438 62.035 0.70647 59.6619 0.595024C58.4562 0.553124 57.241 0.435027 56.0165 0.453727L52.3158 0.643715C51.6958 0.686715 51.0684 0.682527 50.4477 0.764427L48.583 1.05062C47.3384 1.25662 46.073 1.40212 44.8212 1.66062C42.2907 2.22506 39.8001 2.95533 37.3654 3.84672L35.5107 4.52673C35.2019 4.64343 34.8873 4.74752 34.5819 4.87492L33.6856 5.30752L30.0736 7.04983C28.893 7.68983 27.7609 8.43532 26.592 9.12852C26.0199 9.49472 25.4091 9.80692 24.8642 10.2199L23.2183 11.4522C20.9879 13.1065 18.8694 14.9066 16.8766 16.8407L14.0349 19.9699L13.3202 20.7566C13.0987 21.0332 12.8928 21.3232 12.678 21.6066L11.398 23.3191L10.1124 25.0391L8.98674 26.8781L7.86274 28.7292L7.29884 29.6575C7.12984 29.9775 6.98114 30.3092 6.82094 30.635L4.92284 34.5769C4.41904 35.9515 3.91338 37.3313 3.40584 38.7163C-0.439521 50.1595 -0.440855 62.5457 3.40204 73.9897L4.91854 78.1306L6.81724 82.0736L7.29444 83.0518L7.85854 83.9804L8.98284 85.8319L10.1082 87.6719L11.3942 89.3919L12.6742 91.1049L13.3161 91.9549L14.031 92.7418L16.8733 95.8718C18.8662 97.8066 20.985 99.6072 23.2159 101.262L24.8621 102.494C25.4069 102.908 26.018 103.22 26.5901 103.586C27.7592 104.28 28.8915 105.025 30.0723 105.665L33.6849 107.408L34.5813 107.841C34.8867 107.968 35.2013 108.072 35.5103 108.189L37.3652 108.869C39.8002 109.76 42.2912 110.491 44.822 111.055C46.0736 111.314 47.3396 111.459 48.5843 111.665L50.4492 111.951C51.0701 112.033 51.6974 112.029 52.3176 112.071L56.0187 112.261C57.2433 112.28 58.4587 112.161 59.6644 112.12C62.0377 112.008 64.4006 111.734 66.7364 111.299L67.6009 111.168C67.886 111.112 68.1646 111.028 68.4459 110.96L70.1215 110.531C71.2285 110.23 72.3478 110.002 73.4168 109.647L76.5648 108.499L78.1165 107.934L79.5934 107.232L82.4976 105.838C82.9776 105.616 83.4409 105.36 83.8839 105.071L85.2258 104.258C86.111 103.712 87.0065 103.202 87.8558 102.644L90.2747 100.84C95.9934 96.5078 100.823 91.1137 104.5 84.9531C104.908 84.2765 105.326 83.6207 105.705 82.9601L106.685 80.939L107.628 78.9942C107.777 78.6742 107.946 78.3669 108.074 78.0461L108.429 77.0829L109.775 73.4375C110.171 72.2675 110.406 71.1116 110.706 70.0401C110.847 69.5015 110.983 68.9779 111.116 68.4693C111.262 67.9808 111.369 67.4816 111.435 66.9762C111.589 66.0013 111.732 65.0898 111.865 64.2416C111.99 63.3936 112.142 62.6144 112.216 61.8951C112.257 61.1735 112.294 60.519 112.328 59.9316C112.398 58.7694 112.451 57.8807 112.488 57.2658C112.527 56.665 112.56 56.357 112.56 56.357C112.56 56.357 112.563 56.665 112.541 57.267C112.516 57.8824 112.479 58.7729 112.432 59.9385C112.406 60.5272 112.377 61.1839 112.345 61.9085C112.279 62.6302 112.135 63.4124 112.018 64.2639C111.892 65.1153 111.756 66.0309 111.611 67.0106C111.548 67.518 111.445 68.0196 111.303 68.5106C111.173 69.0218 111.04 69.5482 110.903 70.0897C110.609 71.167 110.38 72.3297 109.99 73.5065L108.66 77.1751L108.308 78.1451C108.18 78.468 108.013 78.7778 107.865 79.0999C107.558 79.7399 107.246 80.3928 106.927 81.0585C106.608 81.7242 106.283 82.4028 105.952 83.0943C105.574 83.76 105.157 84.4209 104.75 85.1028C101.078 91.3157 96.2381 96.7593 90.4978 101.134L88.0678 102.956C87.2145 103.521 86.3147 104.037 85.4248 104.589L84.0755 105.411C83.63 105.703 83.1642 105.962 82.6815 106.187L79.7602 107.599C79.2669 107.833 78.7767 108.082 78.274 108.309L76.7125 108.882L73.5435 110.046C72.4672 110.405 71.3403 110.638 70.2253 110.944L68.5377 111.38C68.2543 111.449 67.9735 111.534 67.6864 111.591L66.8157 111.725C64.4624 112.167 62.0816 112.448 59.6899 112.565C58.4747 112.61 57.2499 112.73 56.0155 112.714L52.2844 112.529C51.659 112.487 51.0266 112.491 50.4005 112.41L48.5197 112.125C47.2644 111.919 45.9876 111.774 44.7251 111.515C42.1718 110.949 39.6585 110.216 37.2015 109.32L35.3296 108.636C35.018 108.519 34.7005 108.414 34.3923 108.286L33.4874 107.851L29.8413 106.097C28.6495 105.453 27.5062 104.702 26.3262 104.004C25.7486 103.635 25.1321 103.32 24.582 102.904L22.9199 101.662C20.6675 99.9948 18.5284 98.1796 16.5165 96.2287L13.6465 93.073L12.9248 92.2793L12.2763 91.422L10.9835 89.6944L9.68524 87.9589L8.54804 86.1032L7.41264 84.2351L6.84324 83.2981L6.36085 82.3113L4.44324 78.3323C3.93431 76.9446 3.42347 75.5517 2.91074 74.1534C-0.970929 62.604 -0.969561 50.102 2.91464 38.5534C3.42757 37.1558 3.93854 35.7633 4.44754 34.376L6.36464 30.3982C6.52644 30.0695 6.67694 29.7351 6.84764 29.412L7.41684 28.4752L8.55194 26.6076L9.68954 24.7528L10.9874 23.0177L12.2799 21.2905C12.4969 21.0051 12.705 20.7127 12.9287 20.4338L13.6502 19.6402L16.5202 16.4853C18.532 14.5352 20.6709 12.7206 22.9228 11.0536L24.5847 9.81232C25.1347 9.39642 25.7511 9.08152 26.3287 8.71232C27.5087 8.01382 28.6515 7.26362 29.8432 6.61942L33.4887 4.86562L34.3934 4.43063C34.7016 4.30253 35.019 4.19772 35.3306 4.08062L37.2022 3.39683C39.6588 2.50093 42.1718 1.7679 44.7247 1.20252C45.9871 0.943322 47.2637 0.797921 48.5189 0.592521L50.3995 0.307228C51.0254 0.225828 51.6578 0.230525 52.2831 0.188225L56.0138 0.00312017C57.248 -0.0136798 58.4728 0.106827 59.6879 0.151527C62.0794 0.268439 64.46 0.549265 66.813 0.992027L67.6838 1.12592C67.971 1.18212 68.2516 1.26742 68.535 1.33652L70.2226 1.77222C71.3375 2.07802 72.4642 2.31102 73.5407 2.66972L76.7095 3.83343L78.2709 4.40722C78.7739 4.63282 79.264 4.88202 79.7572 5.11652L82.6784 6.52833C83.1612 6.75281 83.6272 7.01185 84.0726 7.30343C84.5248 7.57883 84.9746 7.85282 85.4219 8.12542C86.3119 8.67732 87.2114 9.19433 88.0651 9.75813L90.4951 11.5805C96.2358 15.9546 101.076 21.3979 104.749 27.6105C107.555 32.2716 109.63 37.3349 110.903 42.6242C111.04 43.1657 111.173 43.6921 111.303 44.2034C111.445 44.6947 111.548 45.1965 111.612 45.7041C111.757 46.6835 111.892 47.5991 112.019 48.4511C112.136 49.3028 112.28 50.0851 112.346 50.807C112.378 51.531 112.407 52.1877 112.432 52.777C112.48 53.942 112.516 54.8327 112.542 55.4491C112.562 56.0495 112.56 56.3575 112.56 56.3575Z" fill="#263238"/>
<path d="M202.341 75.8636H202.302C201.904 75.8534 201.526 75.6857 201.252 75.3974C200.978 75.1091 200.83 74.7237 200.84 74.326L201.18 60.9749C201.186 60.7432 201.245 60.516 201.354 60.3112C201.462 60.1064 201.617 59.9295 201.805 59.7944C201.993 59.6593 202.211 59.5697 202.439 59.5326C202.668 59.4954 202.902 59.5118 203.124 59.5804C204.372 59.9447 205.681 60.0494 206.971 59.888C208.261 59.7267 209.504 59.3028 210.624 58.6424C211.664 58.0755 212.578 57.3016 213.309 56.3684C214.039 55.4352 214.571 54.3625 214.871 53.2161C215.108 52.0504 215.109 50.8487 214.872 49.6829C214.635 48.517 214.166 47.4107 213.493 46.43C212.804 45.3335 211.901 44.3872 210.838 43.6476C209.775 42.9079 208.573 42.3902 207.306 42.1253C202.392 41.2117 197.01 44.4886 195.299 49.4236C195.165 49.7948 194.89 50.0982 194.534 50.2682C194.178 50.4381 193.769 50.4609 193.396 50.3315C193.023 50.2021 192.716 49.9311 192.542 49.577C192.368 49.223 192.34 48.8145 192.465 48.4402C194.641 42.1624 201.546 38.0066 207.852 39.1751C209.519 39.5148 211.1 40.1871 212.5 41.1517C213.901 42.1164 215.093 43.3536 216.005 44.7894C216.899 46.1101 217.519 47.5977 217.826 49.1632C218.132 50.7286 218.121 52.3399 217.791 53.9007C217.397 55.4479 216.689 56.8979 215.713 58.1613C214.737 59.4247 213.512 60.4746 212.114 61.2463C209.702 62.643 206.898 63.2109 204.133 62.8631L203.839 74.4022C203.829 74.793 203.667 75.1645 203.387 75.4375C203.107 75.7105 202.731 75.8634 202.341 75.8636Z" fill="#263238"/>
<path d="M204.665 82.4588C204.665 82.8927 204.536 83.3168 204.295 83.6776C204.054 84.0384 203.712 84.3196 203.311 84.4856C202.91 84.6517 202.469 84.6951 202.043 84.6105C201.618 84.5258 201.227 84.3169 200.92 84.0101C200.613 83.7033 200.404 83.3124 200.32 82.8868C200.235 82.4613 200.278 82.0202 200.444 81.6193C200.61 81.2184 200.892 80.8758 201.252 80.6347C201.613 80.3937 202.037 80.265 202.471 80.265C203.053 80.265 203.611 80.4961 204.022 80.9076C204.434 81.319 204.665 81.877 204.665 82.4588Z" fill="#263238"/>
<path d="M38.2065 229.777C35.9613 229.806 33.7669 229.109 31.9507 227.788C30.8828 226.959 29.9932 225.922 29.3351 224.741C28.677 223.56 28.264 222.258 28.1207 220.913C27.9501 219.654 28.0352 218.373 28.3708 217.148C28.7064 215.922 29.2856 214.777 30.0738 213.78C30.9025 212.814 31.9204 212.028 33.0647 211.47C34.209 210.912 35.4554 210.595 36.7271 210.538C38.8049 210.402 40.874 210.911 42.6524 211.993L46.6065 204.499C46.6984 204.325 46.8237 204.17 46.9753 204.044C47.1269 203.919 47.3018 203.824 47.49 203.766C47.6782 203.707 47.8761 203.687 48.0722 203.705C48.2683 203.723 48.459 203.78 48.6332 203.872C48.8074 203.964 48.9618 204.089 49.0876 204.241C49.2134 204.393 49.3081 204.567 49.3663 204.756C49.4245 204.944 49.445 205.142 49.4268 205.338C49.4085 205.534 49.3518 205.725 49.2599 205.899L44.4791 214.959C44.3709 215.164 44.2168 215.342 44.0286 215.477C43.8405 215.612 43.6236 215.702 43.3948 215.74C43.1661 215.777 42.9318 215.761 42.7103 215.693C42.4888 215.625 42.2862 215.506 42.1183 215.346C41.42 214.703 40.5971 214.21 39.7005 213.898C38.804 213.586 37.8529 213.462 36.9063 213.532C36.0457 213.564 35.2008 213.773 34.4237 214.144C33.6465 214.515 32.9535 215.041 32.3873 215.69C31.8571 216.373 31.4699 217.157 31.2487 217.993C31.0275 218.83 30.9768 219.702 31.0997 220.558C31.1944 221.5 31.4778 222.413 31.9331 223.243C32.3884 224.072 33.0063 224.802 33.7497 225.388C35.3128 226.423 37.1806 226.898 39.0483 226.735C40.916 226.572 42.6734 225.781 44.0339 224.491C44.1731 224.347 44.3396 224.233 44.5237 224.154C44.7078 224.076 44.9057 224.035 45.1058 224.035C45.3059 224.034 45.5041 224.073 45.6888 224.15C45.8735 224.227 46.0409 224.34 46.1811 224.483C46.3214 224.626 46.4317 224.795 46.5056 224.981C46.5794 225.167 46.6153 225.366 46.6112 225.566C46.607 225.766 46.5628 225.963 46.4813 226.146C46.3997 226.328 46.2825 226.493 46.1364 226.63C44.0018 228.668 41.1581 229.797 38.2065 229.777Z" fill="#263238"/>
<path d="M49.0924 198.843C49.2402 198.544 49.4731 198.297 49.7616 198.131C50.0502 197.965 50.3815 197.888 50.7136 197.911C51.0456 197.933 51.3636 198.054 51.6273 198.257C51.891 198.46 52.0886 198.736 52.195 199.052C52.3014 199.367 52.3118 199.707 52.2251 200.028C52.1383 200.35 51.9582 200.638 51.7076 200.857C51.4569 201.076 51.147 201.216 50.8169 201.259C50.4868 201.302 50.1514 201.246 49.8532 201.098C49.4533 200.9 49.1485 200.551 49.0058 200.128C48.8631 199.705 48.8943 199.243 49.0924 198.843Z" fill="#263238"/>
<path d="M340.939 204.535C340.702 204.536 340.468 204.48 340.256 204.372C340.044 204.264 339.862 204.107 339.722 203.914L333.719 195.612C333.584 195.424 333.493 195.208 333.455 194.979C333.417 194.75 333.433 194.516 333.501 194.294C333.568 194.073 333.687 193.87 333.846 193.701C334.005 193.533 334.202 193.404 334.419 193.324C335.305 192.983 336.111 192.464 336.788 191.799C337.465 191.134 337.999 190.337 338.356 189.457C338.709 188.671 338.897 187.822 338.909 186.961C338.921 186.099 338.757 185.245 338.426 184.449C338.048 183.671 337.517 182.976 336.865 182.407C336.213 181.838 335.453 181.406 334.631 181.136C333.745 180.805 332.801 180.654 331.856 180.695C330.911 180.735 329.984 180.965 329.129 181.371C327.508 182.314 326.254 183.777 325.572 185.524C324.89 187.27 324.82 189.197 325.373 190.988C325.494 191.365 325.461 191.775 325.281 192.127C325.101 192.48 324.789 192.747 324.413 192.871C324.037 192.995 323.627 192.965 323.273 192.787C322.919 192.61 322.65 192.3 322.523 191.925C321.744 189.452 321.842 186.786 322.798 184.376C323.755 181.966 325.512 179.96 327.775 178.694C328.992 178.105 330.315 177.767 331.665 177.701C333.015 177.635 334.365 177.842 335.634 178.309C336.838 178.715 337.949 179.359 338.899 180.203C339.849 181.047 340.619 182.074 341.164 183.223C341.662 184.394 341.915 185.655 341.908 186.928C341.9 188.201 341.631 189.459 341.119 190.624C340.318 192.546 338.946 194.174 337.188 195.29L342.153 202.156C342.315 202.38 342.412 202.645 342.433 202.92C342.454 203.196 342.399 203.472 342.273 203.718C342.148 203.964 341.956 204.17 341.721 204.315C341.485 204.459 341.214 204.535 340.938 204.535H340.939Z" fill="#263238"/>
<path d="M346.122 206.892C346.324 207.157 346.443 207.475 346.464 207.807C346.484 208.14 346.406 208.47 346.239 208.758C346.072 209.046 345.823 209.278 345.524 209.424C345.225 209.57 344.889 209.625 344.559 209.58C344.229 209.536 343.92 209.394 343.671 209.174C343.421 208.954 343.242 208.665 343.157 208.343C343.072 208.021 343.084 207.681 343.192 207.367C343.3 207.052 343.499 206.776 343.764 206.574C344.118 206.303 344.566 206.185 345.009 206.245C345.451 206.304 345.852 206.537 346.122 206.892Z" fill="#263238"/>
<path d="M358.896 347.653C358.91 347.709 358.301 347.793 357.342 348.276C355.999 348.978 354.904 350.076 354.205 351.422C353.72 352.335 353.442 353.343 353.393 354.376C353.353 355.556 353.656 356.722 354.265 357.734C354.909 358.936 355.906 359.913 357.122 360.532C358.338 361.151 359.714 361.383 361.065 361.196C362.417 361.01 363.678 360.414 364.681 359.489C365.684 358.564 366.379 357.354 366.674 356.022C366.986 354.883 366.962 353.678 366.604 352.553C366.277 351.572 365.736 350.677 365.022 349.929C363.986 348.823 362.634 348.062 361.151 347.75C360.097 347.545 359.489 347.629 359.487 347.572C359.627 347.526 359.774 347.502 359.922 347.502C360.099 347.48 360.278 347.475 360.456 347.488C360.701 347.488 360.945 347.509 361.186 347.551C362.503 347.769 363.738 348.336 364.762 349.191C365.787 350.047 366.565 351.161 367.015 352.417C367.419 353.62 367.462 354.915 367.139 356.143C366.791 357.497 366.076 358.729 365.074 359.703C364.025 360.797 362.638 361.505 361.136 361.712C359.635 361.919 358.108 361.613 356.802 360.844C355.574 360.177 354.552 359.185 353.851 357.976C353.208 356.882 352.899 355.623 352.962 354.356C353.055 353.024 353.502 351.741 354.256 350.64C355.011 349.539 356.046 348.66 357.255 348.092C357.475 347.987 357.705 347.901 357.94 347.835C358.108 347.774 358.282 347.73 358.459 347.704C358.601 347.664 358.748 347.647 358.896 347.653Z" fill="#263238"/>
<path d="M377.884 363.797C377.895 363.846 377.514 363.911 376.922 364.223C376.093 364.673 375.42 365.363 374.991 366.202C374.661 366.801 374.493 367.475 374.502 368.158C374.512 368.841 374.699 369.51 375.045 370.099C375.443 370.839 376.058 371.439 376.807 371.82C377.556 372.2 378.404 372.343 379.236 372.228C380.069 372.113 380.846 371.747 381.464 371.177C382.082 370.608 382.511 369.864 382.694 369.044C382.868 368.383 382.867 367.688 382.691 367.028C382.515 366.368 382.171 365.765 381.691 365.278C381.051 364.586 380.216 364.104 379.297 363.895C378.642 363.755 378.258 363.795 378.256 363.746C378.605 363.64 378.975 363.623 379.332 363.696C380.174 363.826 380.965 364.18 381.623 364.721C382.281 365.262 382.781 365.971 383.071 366.772C383.334 367.544 383.364 368.376 383.159 369.165C382.962 370.085 382.487 370.922 381.798 371.562C381.109 372.203 380.239 372.615 379.307 372.744C378.375 372.873 377.426 372.711 376.59 372.281C375.753 371.851 375.069 371.174 374.631 370.341C374.219 369.637 374.024 368.828 374.068 368.014C374.129 367.164 374.419 366.347 374.906 365.648C375.392 364.949 376.058 364.393 376.834 364.041C377.158 363.874 377.519 363.79 377.884 363.797Z" fill="#263238"/>
<path d="M304.093 308.906H300.863L293.815 299.084V292.638C293.815 292.638 288.824 292.331 289.411 300.772C289.998 309.213 289.363 307.064 289.363 307.064C289.363 307.064 278.764 307.105 277.883 308.026C277.242 308.695 276.953 319.223 276.842 324.934C276.772 326.312 277.166 327.673 277.96 328.802C278.754 329.93 279.902 330.76 281.223 331.161C281.595 331.259 281.978 331.311 282.363 331.314C285.007 331.314 298.514 329.165 298.514 329.165H304.093L304.093 308.906Z" fill="#E7515B"/>
<path d="M313.338 307.137L311.352 329.225H305.821V307.581L313.338 307.137Z" fill="#E7515B"/>
<path d="M353.167 311.975C353.167 311.975 353.134 311.667 353.094 311.066C353.058 310.452 353.004 309.563 352.934 308.4C352.901 307.813 352.863 307.159 352.822 306.436C352.748 305.717 352.596 304.938 352.471 304.09C352.338 303.242 352.195 302.33 352.041 301.355C351.975 300.849 351.868 300.35 351.722 299.861C351.589 299.353 351.453 298.829 351.312 298.29C350.01 293.033 347.917 288.005 345.105 283.376C341.427 277.216 336.597 271.822 330.878 267.49L328.459 265.686C327.609 265.129 326.714 264.618 325.829 264.072L324.487 263.259C324.044 262.971 323.581 262.714 323.101 262.493L320.196 261.099C319.706 260.867 319.219 260.621 318.719 260.398L317.168 259.832L314.02 258.684C312.951 258.33 311.832 258.102 310.725 257.8L309.049 257.371C308.768 257.303 308.489 257.219 308.204 257.164L307.34 257.033C305.004 256.598 302.641 256.324 300.268 256.213C299.063 256.171 297.847 256.053 296.623 256.072L292.922 256.262C292.302 256.305 291.675 256.3 291.054 256.382L289.189 256.669C287.945 256.875 286.679 257.02 285.428 257.279C282.897 257.843 280.407 258.573 277.972 259.465L276.117 260.145C275.808 260.261 275.494 260.365 275.188 260.493L274.292 260.925L270.68 262.668C269.499 263.308 268.367 264.053 267.198 264.746C266.626 265.113 266.016 265.425 265.471 265.838L263.825 267.07C261.594 268.724 259.476 270.525 257.483 272.459L254.641 275.588L253.927 276.375C253.705 276.651 253.499 276.941 253.284 277.225L252.004 278.937L250.719 280.657L249.593 282.496L248.469 284.347L247.905 285.275C247.736 285.595 247.588 285.927 247.427 286.253L245.529 290.195C245.025 291.569 244.52 292.949 244.012 294.334C240.167 305.777 240.166 318.164 244.008 329.608L245.525 333.749L247.424 337.692L247.901 338.67L248.465 339.598L249.589 341.45L250.715 343.29L252.001 345.01L253.281 346.723L253.923 347.573L254.637 348.36L257.48 351.49C259.473 353.424 261.591 355.225 263.822 356.88L265.469 358.112C266.013 358.526 266.624 358.838 267.197 359.204C268.366 359.897 269.498 360.643 270.679 361.283L274.291 363.026L275.188 363.459C275.493 363.586 275.808 363.69 276.117 363.807L277.972 364.487C280.407 365.378 282.898 366.109 285.428 366.673C286.68 366.932 287.946 367.077 289.191 367.283L291.056 367.569C291.677 367.651 292.304 367.647 292.924 367.689L296.625 367.879C297.85 367.898 299.065 367.779 300.271 367.738C302.644 367.626 305.007 367.352 307.343 366.917L308.207 366.786C308.492 366.73 308.771 366.646 309.052 366.578L310.728 366.149C311.835 365.848 312.954 365.62 314.023 365.265L317.171 364.117L318.723 363.551L320.2 362.85L323.104 361.456C323.584 361.234 324.047 360.978 324.49 360.689L325.832 359.876C326.717 359.33 327.613 358.82 328.462 358.262L330.881 356.458C336.6 352.126 341.43 346.732 345.107 340.571C345.514 339.894 345.932 339.239 346.312 338.578L347.291 336.557L348.234 334.612C348.383 334.292 348.552 333.985 348.68 333.664L349.036 332.701L350.382 329.055C350.777 327.885 351.013 326.73 351.313 325.658C351.453 325.119 351.59 324.596 351.723 324.087C351.868 323.599 351.975 323.099 352.042 322.594C352.195 321.619 352.338 320.708 352.472 319.86C352.596 319.012 352.748 318.232 352.822 317.513C352.863 316.791 352.901 316.137 352.934 315.55C353.004 314.387 353.058 313.499 353.095 312.884C353.134 312.283 353.167 311.975 353.167 311.975C353.167 311.975 353.169 312.283 353.148 312.885C353.123 313.5 353.086 314.391 353.039 315.556C353.013 316.145 352.984 316.802 352.952 317.526C352.886 318.248 352.742 319.03 352.625 319.882C352.499 320.733 352.363 321.649 352.218 322.629C352.155 323.136 352.052 323.638 351.91 324.129C351.78 324.64 351.647 325.166 351.51 325.708C351.216 326.785 350.987 327.948 350.597 329.124L349.267 332.793L348.915 333.763C348.787 334.086 348.619 334.396 348.471 334.718C348.165 335.358 347.853 336.011 347.534 336.676C347.215 337.342 346.89 338.021 346.559 338.712C346.181 339.378 345.764 340.039 345.357 340.721C341.685 346.934 336.845 352.377 331.105 356.752L328.675 358.574C327.821 359.139 326.922 359.655 326.032 360.207L324.682 361.029C324.237 361.321 323.771 361.58 323.288 361.805L320.367 363.216C319.874 363.451 319.384 363.7 318.881 363.926L317.319 364.5L314.15 365.664C313.074 366.023 311.947 366.256 310.832 366.562L309.145 366.998C308.861 367.067 308.58 367.152 308.293 367.209L307.423 367.343C305.069 367.785 302.689 368.066 300.297 368.183C299.082 368.228 297.857 368.348 296.622 368.332L292.891 368.147C292.266 368.105 291.634 368.109 291.007 368.028L289.127 367.743C287.871 367.537 286.595 367.392 285.332 367.133C282.779 366.567 280.265 365.834 277.808 364.938L275.937 364.254C275.625 364.137 275.307 364.032 274.999 363.904L274.094 363.469L270.448 361.715C269.256 361.07 268.113 360.32 266.933 359.622C266.356 359.253 265.739 358.938 265.189 358.521L263.527 357.279C261.274 355.611 259.135 353.796 257.123 351.845L254.253 348.69L253.532 347.896L252.883 347.039L251.59 345.311L250.292 343.576L249.155 341.72L248.02 339.852L247.45 338.915L246.968 337.928L245.05 333.949C244.541 332.561 244.03 331.168 243.518 329.77C239.636 318.221 239.637 305.719 243.522 294.17C244.035 292.773 244.545 291.38 245.054 289.993L246.972 286.015C247.133 285.686 247.284 285.352 247.455 285.029L248.024 284.092L249.159 282.224L250.296 280.37L251.594 278.634L252.887 276.907C253.104 276.622 253.312 276.329 253.536 276.051L254.257 275.257L257.127 272.102C259.139 270.152 261.278 268.337 263.53 266.67L265.192 265.429C265.742 265.013 266.358 264.698 266.936 264.329C268.116 263.631 269.258 262.88 270.45 262.236L274.096 260.482L275 260.047C275.309 259.919 275.626 259.814 275.938 259.697L277.809 259.014C280.266 258.118 282.779 257.385 285.332 256.819C286.594 256.56 287.871 256.415 289.126 256.209L291.006 255.924C291.632 255.843 292.265 255.847 292.89 255.805L296.621 255.62C297.855 255.603 299.08 255.724 300.295 255.768C302.686 255.885 305.067 256.166 307.42 256.608L308.291 256.742C308.578 256.798 308.859 256.884 309.142 256.953L310.83 257.388C311.944 257.694 313.071 257.927 314.148 258.286L317.316 259.45L318.878 260.023C319.381 260.249 319.871 260.498 320.364 260.733L323.285 262.145C323.768 262.369 324.234 262.628 324.68 262.92C325.132 263.195 325.582 263.469 326.029 263.742C326.919 264.294 327.819 264.811 328.672 265.374L331.102 267.197C336.843 271.571 341.683 277.014 345.356 283.227C348.162 287.888 350.237 292.951 351.51 298.24C351.647 298.782 351.78 299.308 351.91 299.82C352.052 300.311 352.155 300.813 352.218 301.32C352.364 302.3 352.499 303.215 352.625 304.067C352.742 304.919 352.886 305.701 352.952 306.423C352.984 307.147 353.013 307.804 353.039 308.393C353.087 309.558 353.123 310.449 353.148 311.065C353.169 311.667 353.167 311.975 353.167 311.975Z" fill="#263238"/>
<path d="M98.4671 330.425L95.4883 330.622L89.5897 340.114L89.9849 346.06C89.9849 346.06 85.3997 346.649 85.4238 338.827C85.4479 331.005 84.9938 333.027 84.9938 333.027C84.9938 333.027 75.2151 333.639 74.3464 332.844C73.7144 332.266 72.8021 322.573 72.3499 317.313C72.2014 316.046 72.4809 314.766 73.144 313.677C73.807 312.587 74.8154 311.751 76.0087 311.301C76.3461 311.187 76.6965 311.116 77.0515 311.089C79.4897 310.927 92.0798 312.082 92.0798 312.082L97.2252 311.74L98.4671 330.425Z" fill="#455B64"/>
<path d="M107.103 331.49L103.917 311.239L98.8159 311.578L100.142 331.541L107.103 331.49Z" fill="#455B64"/>
<path d="M28.6997 348.619C28.8471 348.631 28.9917 348.666 29.128 348.723C29.3003 348.771 29.4674 348.835 29.627 348.916C29.8527 349.01 30.0699 349.123 30.2762 349.254C31.4072 349.964 32.3283 350.962 32.9444 352.146C33.5605 353.33 33.8491 354.658 33.7805 355.991C33.69 357.256 33.2311 358.468 32.4605 359.476C31.6181 360.592 30.4844 361.453 29.1841 361.966C27.795 362.572 26.2422 362.691 24.777 362.304C23.3118 361.917 22.0202 361.047 21.1114 359.834C20.2336 358.746 19.6731 357.436 19.4914 356.05C19.3191 354.792 19.5183 353.512 20.0647 352.367C20.6635 351.174 21.5701 350.162 22.6906 349.437C23.8112 348.711 25.1052 348.298 26.4388 348.24C26.683 348.228 26.9278 348.237 27.1705 348.266C27.349 348.275 27.5262 348.301 27.6995 348.345C27.8462 348.363 27.9892 348.404 28.123 348.467C28.1142 348.524 27.52 348.366 26.4494 348.443C24.9393 348.573 23.5059 349.165 22.3434 350.138C21.5438 350.793 20.8991 351.617 20.4553 352.551C19.964 353.625 19.7944 354.818 19.967 355.986C20.0984 357.344 20.6425 358.629 21.5261 359.669C22.4096 360.708 23.5903 361.452 24.9092 361.8C26.2282 362.149 27.6222 362.085 28.9038 361.617C30.1854 361.15 31.2931 360.301 32.078 359.185C32.805 358.255 33.2469 357.134 33.35 355.958C33.4252 354.927 33.2716 353.892 32.9 352.928C32.3697 351.508 31.4156 350.285 30.167 349.425C29.2738 348.83 28.6792 348.673 28.6997 348.619Z" fill="#263238"/>
<path d="M7.88481 366.431C8.24773 366.467 8.59579 366.594 8.89752 366.799C9.62466 367.243 10.2188 367.874 10.6175 368.627C11.0162 369.38 11.2047 370.226 11.1632 371.077C11.1085 371.891 10.8165 372.67 10.3232 373.319C9.78765 374.093 9.02679 374.683 8.14415 375.008C7.26152 375.334 6.29998 375.38 5.39039 375.139C4.4808 374.899 3.66732 374.384 3.06066 373.665C2.454 372.946 2.08362 372.058 1.99992 371.121C1.89148 370.313 2.02245 369.49 2.37662 368.756C2.76086 367.996 3.34281 367.353 4.06131 366.895C4.77981 366.437 5.60833 366.182 6.45982 366.155C6.82334 366.126 7.1884 366.187 7.52202 366.335C7.51352 366.383 7.13741 366.298 6.47042 366.357C5.53249 366.453 4.64554 366.83 3.92632 367.44C3.39154 367.865 2.97659 368.422 2.72222 369.056C2.46786 369.691 2.38284 370.38 2.47552 371.057C2.558 371.893 2.89415 372.684 3.43892 373.324C3.98369 373.963 4.71102 374.421 5.52338 374.636C6.33574 374.85 7.1943 374.812 7.98391 374.524C8.77353 374.237 9.45646 373.715 9.94112 373.029C10.356 372.486 10.6225 371.845 10.7146 371.168C10.8066 370.491 10.7209 369.802 10.466 369.168C10.1416 368.283 9.55684 367.516 8.78861 366.97C8.23771 366.589 7.86821 366.477 7.88481 366.431Z" fill="#263238"/>
<path d="M38.1922 318.068C38.1922 318.068 38.2231 317.785 38.3095 317.235C38.4012 316.671 38.5334 315.858 38.7062 314.795C38.7956 314.258 38.8953 313.658 39.0052 312.997C39.1462 312.342 39.3652 311.64 39.5677 310.871L40.2477 308.396C40.3621 307.937 40.5128 307.488 40.6983 307.053L41.2414 305.648C42.9995 300.935 45.4691 296.52 48.5644 292.555C52.6288 287.263 57.6788 282.807 63.436 279.433L65.8699 278.032C66.7165 277.61 67.5999 277.236 68.4784 276.829C69.37 276.452 70.2306 275.969 71.1749 275.669L74.0138 274.699C74.4928 274.539 74.9704 274.365 75.4573 274.214L76.9546 273.862L79.9932 273.148C81.0214 272.939 82.0816 272.851 83.139 272.694C84.2035 272.517 85.2778 272.405 86.3559 272.359C88.5652 272.216 90.7817 272.224 92.9898 272.384C94.1098 272.478 95.2479 272.505 96.3789 272.658L99.7826 273.245C100.352 273.353 100.933 273.42 101.498 273.565L103.193 274.037C104.322 274.365 105.477 274.642 106.607 275.021C108.887 275.825 111.112 276.778 113.267 277.875C113.813 278.153 114.36 278.432 114.909 278.712C115.182 278.855 115.461 278.986 115.73 279.138L116.512 279.638L119.662 281.656C120.684 282.38 121.649 283.196 122.654 283.97C123.143 284.373 123.673 284.731 124.132 285.174L125.519 286.499C127.399 288.281 129.16 290.185 130.789 292.2C131.546 293.268 132.306 294.34 133.07 295.417L133.644 296.226L134.144 297.085L135.137 298.815L136.135 300.553L136.972 302.383L137.805 304.224L138.223 305.148C138.343 305.463 138.444 305.787 138.556 306.107L139.871 309.973C140.183 311.303 140.496 312.638 140.811 313.979C143.086 325.014 141.689 336.49 136.835 346.658L134.961 350.323L132.756 353.761L132.202 354.613L131.576 355.409L130.325 356.997L129.073 358.573L127.688 360.021L126.308 361.462L125.617 362.176L124.865 362.824L121.878 365.4C119.813 366.966 117.646 368.393 115.392 369.672L113.728 370.625C113.176 370.946 112.575 371.166 112.004 371.44C110.843 371.949 109.709 372.51 108.543 372.969L105 374.171L104.121 374.469C103.824 374.552 103.521 374.613 103.221 374.686L101.426 375.104C99.0707 375.652 96.6817 376.044 94.2748 376.277C93.087 376.374 91.8987 376.365 90.7234 376.413L88.9652 376.464C88.3814 376.469 87.8014 376.394 87.2227 376.363L83.7772 376.116C82.6424 375.992 81.5315 375.746 80.4212 375.568C78.239 375.193 76.0851 374.669 73.9747 373.999C72.9392 373.695 71.9232 373.329 70.9322 372.901C69.9431 372.496 68.9349 372.156 67.9871 371.706L65.2086 370.283L63.8396 369.582L62.5549 368.764L60.0315 367.142C59.1872 366.623 58.4674 365.948 57.6923 365.369C56.9373 364.762 56.1691 364.187 55.449 363.574L53.4227 361.629C48.6437 356.972 44.811 351.434
 42.1359 345.321C40.0833 340.73 38.746 335.851 38.1705 330.855C38.1053 330.343 38.0419 329.845 37.9805 329.361C37.9049 328.894 37.8664 328.422 37.8656 327.949C37.8422 327.035 37.8203 326.179 37.7999 325.383C37.7881 324.589 37.7436 323.855 37.7642 323.185C37.816 322.517 37.8631 321.912 37.9055 321.368C37.9927 320.295 38.0596 319.474 38.106 318.904C38.154 318.35 38.192 318.068 38.192 318.068C38.192 318.068 38.1895 318.354 38.1589 318.91C38.1246 319.48 38.0751 320.301 38.0103 321.374C37.9755 321.916 37.9369 322.521 37.8943 323.188C37.882 323.856 37.9349 324.588 37.9543 325.38C37.982 326.173 38.0118 327.025 38.0437 327.937C38.0486 328.408 38.0909 328.878 38.1701 329.343C38.2352 329.824 38.3022 330.32 38.3712 330.829C38.9796 335.797 40.3386 340.644 42.4018 345.204C45.0876 351.266 48.9166 356.753 53.6793 361.366L55.697 363.29C56.4137 363.897 57.1782 364.465 57.9293 365.065C58.7005 365.637 59.416 366.306 60.2557 366.818L62.7642 368.422L64.0408 369.23L65.4008 369.922L68.1607 371.327C69.1018 371.771 70.1031 372.105 71.085 372.505C72.0686 372.927 73.077 373.288 74.1045 373.587C76.1987 374.247 78.3356 374.762 80.5001 375.13C81.6015 375.303 82.7031 375.547 83.8285 375.667L87.2447 375.906C87.8184 375.936 88.3935 376.009 88.9721 376.004L90.7147 375.949C91.8794 375.899 93.057 375.907 94.234 375.809C96.6185 375.574 98.985 375.182 101.318 374.636L103.096 374.22C103.392 374.147 103.692 374.087 103.986 374.004L104.857 373.707L108.365 372.512C109.52 372.057 110.642 371.499 111.792 370.994C112.357 370.722 112.953 370.504 113.499 370.185L115.146 369.239C117.377 367.97 119.522 366.555 121.566 365.003L124.523 362.449L125.267 361.807L125.95 361.099L127.316 359.671L128.687 358.237L129.925 356.675L131.163 355.102L131.784 354.313L132.331 353.469L134.513 350.065C135.129 348.86 135.747 347.65 136.367 346.436C141.17 336.368 142.552 325.007 140.304 314.081L139.375 310.115C138.939 308.834 138.506 307.558 138.074 306.287C137.963 305.97 137.864 305.649 137.745 305.337L137.331 304.422L136.507 302.599L135.68 300.786L134.693 299.065L133.71 297.351L133.216 296.5L132.649 295.699C131.893 294.631 131.14 293.569 130.392 292.511C128.78 290.514 127.038 288.626 125.177 286.86L123.805 285.545C123.351 285.105 122.826 284.751 122.342 284.351C121.347 283.585 120.392 282.774 119.381 282.055L116.262 280.054L115.488 279.557C115.223 279.406 114.946 279.275 114.675 279.134L113.05 278.303C110.917 277.213 108.714 276.265 106.456 275.464C105.337 275.087 104.192 274.812 103.073 274.484L101.395 274.013C100.835 273.869 100.259 273.802 99.6947 273.693L96.3214 273.105C95.2003 272.951 94.0725 272.924 92.9614 272.827C90.772 272.664 88.5741 272.652 86.3831 272.789C85.3138 272.833 84.2481 272.941 83.1922 273.115C82.1431 273.268 81.0911 273.352 80.0707 273.557L77.0549 274.258L75.5682 274.603C75.0849 274.752 74.6107 274.923 74.135 275.081L71.315 276.036C70.3767 276.33 69.5217 276.809 68.6356 277.179C67.7626 277.581 66.8842 277.949 66.0424 278.366L63.6218 279.75C57.8908 283.084 52.8563 287.492 48.7936 292.732C45.6958 296.664 43.2128 301.043 41.4296 305.719C41.2402 306.198 41.0562 306.663 40.8774 307.115C40.689 307.547 40.5352 307.993 40.4174 308.449C40.1676 309.326 39.934 310.147 39.7167 310.91C39.5072 311.674 39.2805 312.372 39.1318 313.024C39.0132 313.681 38.9055 314.278 38.8088 314.813C38.6142 315.87 38.4652 316.68 38.3618 317.241C38.2586 317.789 38.1922 318.068 38.1922 318.068Z" fill="#263238"/>
<path d="M178.992 228.834H178.953C178.556 228.823 178.178 228.656 177.904 228.367C177.63 228.079 177.482 227.694 177.491 227.296L177.831 213.945C177.837 213.713 177.897 213.486 178.006 213.281C178.114 213.076 178.269 212.9 178.457 212.764C178.645 212.629 178.862 212.54 179.091 212.503C179.32 212.465 179.554 212.482 179.776 212.55C181.024 212.915 182.333 213.019 183.623 212.858C184.913 212.697 186.156 212.273 187.276 211.612C188.316 211.046 189.23 210.272 189.96 209.338C190.691 208.405 191.223 207.332 191.523 206.186C191.76 205.02 191.761 203.819 191.524 202.653C191.287 201.487 190.818 200.381 190.145 199.4C189.456 198.304 188.553 197.357 187.489 196.618C186.426 195.878 185.225 195.36 183.957 195.095C179.044 194.182 173.662 197.459 171.951 202.394C171.817 202.765 171.542 203.068 171.186 203.238C170.829 203.408 170.421 203.431 170.048 203.302C169.675 203.172 169.368 202.901 169.194 202.547C169.02 202.193 168.992 201.785 169.116 201.41C171.293 195.132 178.198 190.977 184.504 192.145C186.171 192.485 187.752 193.157 189.152 194.122C190.553 195.086 191.745 196.324 192.657 197.759C193.551 199.08 194.17 200.568 194.477 202.133C194.784 203.699 194.772 205.31 194.443 206.871C194.048 208.418 193.341 209.868 192.365 211.131C191.389 212.395 190.164 213.445 188.766 214.216C186.354 215.613 183.55 216.181 180.784 215.833L180.491 227.372C180.481 227.763 180.319 228.135 180.039 228.408C179.759 228.681 179.383 228.833 178.992 228.834Z" fill="#263238"/>
<path d="M181.317 235.429C181.317 235.863 181.188 236.287 180.947 236.648C180.706 237.008 180.363 237.29 179.963 237.456C179.562 237.622 179.121 237.665 178.695 237.58C178.269 237.496 177.879 237.287 177.572 236.98C177.265 236.673 177.056 236.282 176.971 235.857C176.887 235.431 176.93 234.99 177.096 234.589C177.262 234.188 177.543 233.846 177.904 233.605C178.265 233.364 178.689 233.235 179.123 233.235C179.705 233.235 180.263 233.466 180.674 233.878C181.086 234.289 181.317 234.847 181.317 235.429Z" fill="#263238"/>
<path d="M218.992 228.834H218.953C218.556 228.823 218.178 228.656 217.904 228.367C217.63 228.079 217.482 227.694 217.491 227.296L217.831 213.945C217.837 213.713 217.897 213.486 218.006 213.281C218.114 213.076 218.269 212.9 218.457 212.764C218.645 212.629 218.862 212.54 219.091 212.503C219.32 212.465 219.554 212.482 219.776 212.55C221.024 212.915 222.333 213.019 223.623 212.858C224.913 212.697 226.156 212.273 227.276 211.612C228.316 211.046 229.23 210.272 229.96 209.338C230.691 208.405 231.223 207.332 231.523 206.186C231.76 205.02 231.761 203.819 231.524 202.653C231.287 201.487 230.818 200.381 230.145 199.4C229.456 198.304 228.553 197.357 227.489 196.618C226.426 195.878 225.225 195.36 223.957 195.095C219.044 194.182 213.662 197.459 211.951 202.394C211.817 202.765 211.542 203.068 211.186 203.238C210.829 203.408 210.421 203.431 210.048 203.302C209.675 203.172 209.368 202.901 209.194 202.547C209.02 202.193 208.992 201.785 209.116 201.41C211.293 195.132 218.198 190.977 224.504 192.145C226.171 192.485 227.752 193.157 229.152 194.122C230.553 195.086 231.745 196.324 232.657 197.759C233.551 199.08 234.17 200.568 234.477 202.133C234.784 203.699 234.772 205.31 234.443 206.871C234.048 208.418 233.341 209.868 232.365 211.131C231.389 212.395 230.164 213.445 228.766 214.216C226.354 215.613 223.55 216.181 220.784 215.833L220.491 227.372C220.481 227.763 220.319 228.135 220.039 228.408C219.759 228.681 219.383 228.833 218.992 228.834Z" fill="#263238"/>
<path d="M221.317 235.429C221.317 235.863 221.188 236.287 220.947 236.648C220.706 237.008 220.363 237.29 219.963 237.456C219.562 237.622 219.121 237.665 218.695 237.58C218.269 237.496 217.879 237.287 217.572 236.98C217.265 236.673 217.056 236.282 216.971 235.857C216.887 235.431 216.93 234.99 217.096 234.589C217.262 234.188 217.543 233.846 217.904 233.605C218.265 233.364 218.689 233.235 219.123 233.235C219.705 233.235 220.263 233.466 220.674 233.878C221.086 234.289 221.317 234.847 221.317 235.429Z" fill="#263238"/>
<path d="M117.826 217.662L117.811 217.626C117.664 217.257 117.67 216.844 117.827 216.478C117.984 216.113 118.28 215.825 118.649 215.677L131.057 210.737C131.273 210.651 131.505 210.616 131.736 210.636C131.967 210.655 132.19 210.727 132.389 210.847C132.587 210.967 132.755 211.132 132.879 211.327C133.003 211.523 133.08 211.745 133.104 211.975C133.26 213.266 133.679 214.511 134.335 215.633C134.991 216.756 135.87 217.732 136.918 218.501C137.848 219.235 138.919 219.771 140.065 220.075C141.21 220.379 142.406 220.446 143.578 220.271C144.743 220.031 145.848 219.558 146.826 218.882C147.805 218.205 148.637 217.339 149.274 216.334C150.011 215.269 150.526 214.066 150.787 212.798C151.049 211.53 151.052 210.222 150.797 208.952C149.704 204.076 144.573 200.416 139.363 200.785C138.97 200.808 138.583 200.674 138.287 200.414C137.991 200.153 137.809 199.786 137.782 199.393C137.754 199 137.882 198.611 138.139 198.312C138.395 198.012 138.759 197.826 139.152 197.793C145.78 197.324 152.317 202.036 153.725 208.294C154.068 209.96 154.072 211.678 153.736 213.345C153.401 215.012 152.732 216.595 151.771 217.998C150.909 219.34 149.785 220.494 148.466 221.393C147.148 222.291 145.662 222.914 144.097 223.225C142.52 223.471 140.908 223.391 139.363 222.991C137.817 222.59 136.37 221.877 135.11 220.896C132.877 219.228 131.252 216.874 130.484 214.194L119.76 218.464C119.396 218.609 118.991 218.607 118.63 218.457C118.268 218.307 117.98 218.022 117.826 217.662Z" fill="#263238"/>
<path d="M112.677 222.394C112.278 222.565 111.838 222.613 111.411 222.534C110.985 222.454 110.592 222.25 110.281 221.947C109.971 221.643 109.758 221.255 109.668 220.83C109.578 220.406 109.617 219.964 109.778 219.562C109.939 219.159 110.216 218.813 110.574 218.568C110.932 218.323 111.355 218.189 111.789 218.184C112.222 218.179 112.648 218.302 113.012 218.539C113.375 218.776 113.66 219.115 113.831 219.514C113.944 219.779 114.004 220.064 114.008 220.352C114.011 220.64 113.958 220.926 113.851 221.193C113.744 221.461 113.585 221.704 113.383 221.91C113.182 222.116 112.942 222.281 112.677 222.394Z" fill="#263238"/>
<path d="M196.416 143.508C196.76 143.508 197.097 143.605 197.389 143.788C197.68 143.972 197.914 144.233 198.063 144.543L201.998 152.735C202.12 152.989 202.182 153.268 202.178 153.55C202.174 153.832 202.105 154.11 201.976 154.36C201.847 154.611 201.662 154.829 201.435 154.996C201.208 155.163 200.945 155.275 200.667 155.323C199.907 155.47 199.185 155.772 198.546 156.209C197.907 156.646 197.365 157.21 196.952 157.864C196.557 158.438 196.285 159.087 196.15 159.77C196.016 160.453 196.022 161.156 196.17 161.837C196.361 162.511 196.686 163.139 197.125 163.685C197.564 164.231 198.108 164.683 198.726 165.014C199.391 165.407 200.127 165.664 200.892 165.77C201.657 165.875 202.436 165.828 203.182 165.63C204.635 165.1 205.864 164.093 206.671 162.774C207.478 161.454 207.813 159.901 207.623 158.366C207.589 158.129 207.601 157.886 207.66 157.653C207.72 157.42 207.825 157.201 207.969 157.008C208.113 156.816 208.294 156.654 208.501 156.531C208.708 156.409 208.937 156.329 209.175 156.295C209.414 156.262 209.656 156.276 209.889 156.337C210.122 156.397 210.34 156.503 210.532 156.648C210.723 156.794 210.884 156.976 211.006 157.183C211.127 157.391 211.206 157.621 211.238 157.859C211.542 160.257 211.012 162.687 209.734 164.74C208.457 166.792 206.512 168.342 204.226 169.128C203.007 169.47 201.731 169.563 200.475 169.401C199.219 169.238 198.009 168.825 196.917 168.184C195.871 167.607 194.952 166.826 194.215 165.887C193.478 164.947 192.938 163.868 192.628 162.715C192.36 161.549 192.334 160.34 192.552 159.163C192.77 157.985 193.227 156.866 193.894 155.872C194.855 154.387 196.21 153.198 197.807 152.437L194.772 146.124C194.639 145.845 194.578 145.538 194.596 145.23C194.614 144.922 194.709 144.624 194.873 144.362C195.037 144.101 195.265 143.886 195.535 143.736C195.805 143.587 196.108 143.508 196.417 143.508H196.416Z" fill="#E0E0E0"/>
<path d="M192.496 141.152C192.362 140.889 192.308 140.592 192.342 140.299C192.376 140.006 192.496 139.729 192.688 139.504C192.879 139.279 193.133 139.116 193.417 139.035C193.701 138.955 194.002 138.96 194.283 139.051C194.564 139.141 194.812 139.313 194.995 139.545C195.179 139.776 195.289 140.057 195.313 140.351C195.337 140.645 195.273 140.94 195.129 141.198C194.985 141.456 194.768 141.665 194.506 141.8C194.153 141.981 193.744 142.014 193.367 141.892C192.99 141.771 192.677 141.504 192.496 141.152Z" fill="#E0E0E0"/>
<path d="M36.416 163.508C36.7601 163.508 37.0973 163.605 37.3886 163.788C37.6799 163.972 37.9136 164.233 38.0627 164.543L41.9977 172.735C42.12 172.989 42.1817 173.268 42.178 173.55C42.1742 173.832 42.1052 174.11 41.9762 174.36C41.8473 174.611 41.6619 174.829 41.4348 174.996C41.2076 175.163 40.9448 175.275 40.667 175.323C39.907 175.47 39.1852 175.772 38.5463 176.209C37.9073 176.646 37.3646 177.21 36.9518 177.864C36.5574 178.438 36.2846 179.087 36.1502 179.77C36.0157 180.453 36.0225 181.156 36.17 181.837C36.3611 182.511 36.6859 183.139 37.125 183.685C37.564 184.231 38.1084 184.683 38.7257 185.014C39.3907 185.407 40.1271 185.664 40.8922 185.77C41.6573 185.875 42.4357 185.828 43.1823 185.63C44.6346 185.1 45.8644 184.093 46.671 182.774C47.4775 181.454 47.8132 179.901 47.6234 178.366C47.5886 178.129 47.6012 177.886 47.6605 177.653C47.7198 177.42 47.8245 177.201 47.9688 177.008C48.113 176.816 48.2939 176.654 48.5009 176.531C48.708 176.409 48.9373 176.329 49.1754 176.295C49.4136 176.262 49.656 176.276 49.8888 176.337C50.1215 176.397 50.34 176.503 50.5317 176.648C50.7233 176.794 50.8844 176.976 51.0055 177.183C51.1267 177.391 51.2056 177.621 51.2377 177.859C51.5424 180.257 51.0116 182.687 49.7344 184.74C48.4573 186.792 46.512 188.342 44.226 189.128C43.0068 189.47 41.7311 189.563 40.4752 189.401C39.2193 189.238 38.009 188.825 36.9168 188.184C35.871 187.607 34.9522 186.826 34.2152 185.887C33.4783 184.947 32.9383 183.868 32.6277 182.715C32.3599 181.549 32.3342 180.34 32.552 179.163C32.7698 177.985 33.2266 176.866 33.8942 175.872C34.855 174.387 36.2096 173.198 37.8067 172.437L34.7722 166.124C34.639 165.845 34.5784 165.538 34.596 165.23C34.6137 164.922 34.709 164.624 34.8732 164.362C35.0374 164.101 35.265 163.886 35.5349 163.736C35.8048 163.587 36.1081 163.508 36.4166 163.508H36.416Z" fill="#E0E0E0"/>
<path d="M32.4962 161.152C32.3616 160.889 32.3079 160.592 32.342 160.299C32.3761 160.006 32.4963 159.729 32.6876 159.504C32.8789 159.279 33.1325 159.116 33.4165 159.035C33.7005 158.955 34.0021 158.96 34.2831 159.051C34.5641 159.141 34.812 159.313 34.9953 159.545C35.1786 159.776 35.2892 160.057 35.313 160.351C35.3368 160.645 35.2728 160.94 35.1291 161.198C34.9854 161.456 34.7684 161.665 34.5056 161.8C34.1532 161.981 33.7436 162.014 33.3667 161.892C32.9899 161.771 32.6768 161.504 32.4962 161.152Z" fill="#E0E0E0"/>
<path d="M176.416 303.508C176.76 303.508 177.097 303.605 177.389 303.788C177.68 303.972 177.914 304.233 178.063 304.543L181.998 312.735C182.12 312.99 182.182 313.268 182.178 313.55C182.174 313.832 182.105 314.11 181.976 314.36C181.847 314.611 181.662 314.829 181.435 314.996C181.208 315.163 180.945 315.275 180.667 315.323C179.907 315.471 179.185 315.772 178.546 316.209C177.907 316.646 177.365 317.21 176.952 317.865C176.557 318.438 176.285 319.087 176.15 319.77C176.016 320.453 176.022 321.156 176.17 321.837C176.361 322.511 176.686 323.14 177.125 323.685C177.564 324.231 178.108 324.683 178.726 325.015C179.391 325.407 180.127 325.664 180.892 325.77C181.657 325.875 182.436 325.828 183.182 325.63C184.635 325.1 185.864 324.093 186.671 322.774C187.478 321.455 187.813 319.901 187.623 318.367C187.589 318.129 187.601 317.886 187.66 317.653C187.72 317.42 187.825 317.201 187.969 317.008C188.113 316.816 188.294 316.654 188.501 316.531C188.708 316.409 188.937 316.329 189.175 316.296C189.414 316.262 189.656 316.276 189.889 316.337C190.122 316.397 190.34 316.503 190.532 316.649C190.723 316.794 190.884 316.976 191.006 317.183C191.127 317.391 191.206 317.621 191.238 317.859C191.542 320.257 191.012 322.687 189.734 324.74C188.457 326.792 186.512 328.342 184.226 329.128C183.007 329.47 181.731 329.563 180.475 329.401C179.219 329.239 178.009 328.825 176.917 328.184C175.871 327.608 174.952 326.826 174.215 325.887C173.478 324.947 172.938 323.869 172.628 322.716C172.36 321.549 172.334 320.34 172.552 319.163C172.77 317.986 173.227 316.866 173.894 315.872C174.855 314.387 176.21 313.198 177.807 312.437L174.772 306.124C174.639 305.845 174.578 305.538 174.596 305.23C174.614 304.922 174.709 304.624 174.873 304.362C175.037 304.101 175.265 303.886 175.535 303.737C175.805 303.587 176.108 303.508 176.417 303.508H176.416Z" fill="#E0E0E0"/>
<path d="M172.496 301.152C172.362 300.889 172.308 300.592 172.342 300.299C172.376 300.006 172.496 299.729 172.688 299.504C172.879 299.279 173.133 299.116 173.417 299.035C173.701 298.955 174.002 298.96 174.283 299.051C174.564 299.141 174.812 299.313 174.995 299.545C175.179 299.776 175.289 300.057 175.313 300.351C175.337 300.645 175.273 300.94 175.129 301.198C174.985 301.456 174.768 301.665 174.506 301.8C174.153 301.981 173.744 302.014 173.367 301.892C172.99 301.771 172.677 301.504 172.496 301.152Z" fill="#E0E0E0"/>
<path d="M296.416 143.508C296.76 143.508 297.097 143.605 297.389 143.788C297.68 143.972 297.914 144.233 298.063 144.543L301.998 152.735C302.12 152.989 302.182 153.268 302.178 153.55C302.174 153.832 302.105 154.11 301.976 154.36C301.847 154.611 301.662 154.829 301.435 154.996C301.208 155.163 300.945 155.275 300.667 155.323C299.907 155.47 299.185 155.772 298.546 156.209C297.907 156.646 297.365 157.21 296.952 157.864C296.557 158.438 296.285 159.087 296.15 159.77C296.016 160.453 296.022 161.156 296.17 161.837C296.361 162.511 296.686 163.139 297.125 163.685C297.564 164.231 298.108 164.683 298.726 165.014C299.391 165.407 300.127 165.664 300.892 165.77C301.657 165.875 302.436 165.828 303.182 165.63C304.635 165.1 305.864 164.093 306.671 162.774C307.478 161.454 307.813 159.901 307.623 158.366C307.589 158.129 307.601 157.886 307.66 157.653C307.72 157.42 307.825 157.201 307.969 157.008C308.113 156.816 308.294 156.654 308.501 156.531C308.708 156.409 308.937 156.329 309.175 156.295C309.414 156.262 309.656 156.276 309.889 156.337C310.122 156.397 310.34 156.503 310.532 156.648C310.723 156.794 310.884 156.976 311.006 157.183C311.127 157.391 311.206 157.621 311.238 157.859C311.542 160.257 311.012 162.687 309.734 164.74C308.457 166.792 306.512 168.342 304.226 169.128C303.007 169.47 301.731 169.563 300.475 169.401C299.219 169.238 298.009 168.825 296.917 168.184C295.871 167.607 294.952 166.826 294.215 165.887C293.478 164.947 292.938 163.868 292.628 162.715C292.36 161.549 292.334 160.34 292.552 159.163C292.77 157.985 293.227 156.866 293.894 155.872C294.855 154.387 296.21 153.198 297.807 152.437L294.772 146.124C294.639 145.845 294.578 145.538 294.596 145.23C294.614 144.922 294.709 144.624 294.873 144.362C295.037 144.101 295.265 143.886 295.535 143.736C295.805 143.587 296.108 143.508 296.417 143.508H296.416Z" fill="#E0E0E0"/>
<path d="M292.496 141.152C292.362 140.889 292.308 140.592 292.342 140.299C292.376 140.006 292.496 139.729 292.688 139.504C292.879 139.279 293.133 139.116 293.417 139.035C293.701 138.955 294.002 138.96 294.283 139.051C294.564 139.141 294.812 139.313 294.995 139.545C295.179 139.776 295.289 140.057 295.313 140.351C295.337 140.645 295.273 140.94 295.129 141.198C294.985 141.456 294.768 141.665 294.506 141.8C294.153 141.981 293.744 142.014 293.367 141.892C292.99 141.771 292.677 141.504 292.496 141.152Z" fill="#E0E0E0"/>
</g>
<defs>
<clipPath id="clip0_452_304">
<rect width="383.294" height="376.465" fill="white"/>
</clipPath>
</defs>
</svg>
