<svg width="1440" height="432" viewBox="0 0 1440 432" fill="none" xmlns="http://www.w3.org/2000/svg">
<path fillRule="evenodd" clipRule="evenodd" d="M1440 259L1380 274C1320 288 1260 317 1080 317C900 317 791 259 629 259C467 259 390.5 278.5 296.5 317C202.5 355.5 187.5 377 64.5 403C-58.5 429 0 432 0 432V6.10352e-05H60C120 6.10352e-05 240 6.10352e-05 360 6.10352e-05C480 6.10352e-05 600 6.10352e-05 720 6.10352e-05C840 6.10352e-05 960 6.10352e-05 1080 6.10352e-05C1200 6.10352e-05 1320 6.10352e-05 1380 6.10352e-05H1440V259Z" fill="#ED1C24"/>
</svg>
